inDegrees=no
num_controls=7
num_derivatives=13
num_iterations=94
num_multipliers=7
num_parameters=0
num_slacks=7
num_states=26
objective=5.580097
objective_accelerations=0.803366
objective_balance=0.024512
objective_effort=0.248017
objective_height=4.404206
objective_ligament=0.099996
solver_duration=1111.316193
status=Solve_Succeeded
success=true
DataType=double
version=3
OpenSimVersion=4.4-2022-07-23-0e9fedc
endheader
time	/jointset/ground_pelvis/pelvis_tilt/value	/jointset/ground_pelvis/pelvis_tx/value	/jointset/ground_pelvis/pelvis_ty/value	/jointset/hip_l/hip_flexion_l/value	/jointset/hip_l/hip_adduction_l/value	/jointset/hip_l/hip_rotation_l/value	/jointset/back/lumbar_extension/value	/jointset/patellofemoral_l/patellar_flexion_l/value	/jointset/knee_l/knee_flexion_l/value	/jointset/knee_l/knee_adduction_l/value	/jointset/knee_l/knee_rotation_l/value	/jointset/ankle_l/ankle_angle_l/value	/jointset/subtalar_l/subtalar_angle_l/value	/jointset/ground_pelvis/pelvis_tilt/speed	/jointset/ground_pelvis/pelvis_tx/speed	/jointset/ground_pelvis/pelvis_ty/speed	/jointset/hip_l/hip_flexion_l/speed	/jointset/hip_l/hip_adduction_l/speed	/jointset/hip_l/hip_rotation_l/speed	/jointset/back/lumbar_extension/speed	/jointset/patellofemoral_l/patellar_flexion_l/speed	/jointset/knee_l/knee_flexion_l/speed	/jointset/knee_l/knee_adduction_l/speed	/jointset/knee_l/knee_rotation_l/speed	/jointset/ankle_l/ankle_angle_l/speed	/jointset/subtalar_l/subtalar_angle_l/speed	/forceset/tau_hip_flexion_l	/forceset/tau_hip_adduction_l	/forceset/tau_hip_rotation_l	/forceset/tau_knee_flexion_l	/forceset/tau_ankle_angle_l	/forceset/tau_subtalar_angle_l	/forceset/tau_lumbar_extension	lambda_cid13_p0	lambda_cid13_p1	lambda_cid13_p2	lambda_cid13_p3	lambda_cid13_p4	lambda_cid13_p5	lambda_cid14_p0	/jointset/ground_pelvis/pelvis_tilt/accel	/jointset/ground_pelvis/pelvis_tx/accel	/jointset/ground_pelvis/pelvis_ty/accel	/jointset/hip_l/hip_flexion_l/accel	/jointset/hip_l/hip_adduction_l/accel	/jointset/hip_l/hip_rotation_l/accel	/jointset/back/lumbar_extension/accel	/jointset/patellofemoral_l/patellar_flexion_l/accel	/jointset/knee_l/knee_flexion_l/accel	/jointset/knee_l/knee_adduction_l/accel	/jointset/knee_l/knee_rotation_l/accel	/jointset/ankle_l/ankle_angle_l/accel	/jointset/subtalar_l/subtalar_angle_l/accel	gamma_cid13_p0	gamma_cid13_p1	gamma_cid13_p2	gamma_cid13_p3	gamma_cid13_p4	gamma_cid13_p5	gamma_cid14_p0
0.5	-0.4356927263785182	-0.08021234340605106	0.7550163867145222	1.280826118163252	-0.3519021483619955	-0.03956773739362343	-0.4142413530635632	0.788668296001146	0.7886682960009496	-0.04561852979898237	-0.174504951781802	0.0542618845959749	0.08523717110382287	-1.341096629292734	-0.4192098352673359	-0.5828261656986875	3.10441445982195	0.05683514744582084	0.4872984614503768	-0.2579801765063591	1.524009045421424	1.524009045421438	0.2236861379608267	0.000496320150802079	-0.1265047612806267	0.01560488047476861	-0.1749301506630015	0.005155948640543027	0.00305198788935815	-0.155893708892711	0.108641882116062	0.007821875513965999	0.1566667445726974	10.13015176872328	-3.477350858022098	-1.660902145494	-10.07734933411898	-435.6812317000225	-63.23330566628448	-11.55890742550121	0.718566359636859	0.8249575292865781	-0.4051412993585394	-2.053067199569876	0.1783791830637166	-0.5412102915889874	1.747315190924462	-1.337819915984318	-1.337819915984308	-0.3691461615279186	0.02116165132138993	-0.1508540866497641	0.1449468513921345	-2.059010534020428e-07	-3.269910947178894e-07	1.652391446719282e-06	4.447871682463998e-09	-6.13890301083934e-07	7.372495286757764e-07	-3.427732172909561e-07
0.51	-0.4490647431720193	-0.08436253662328379	0.7491693879263239	1.31176153033645	-0.3513269288325171	-0.03472025782974508	-0.4167353588510548	0.8038389154662161	0.8038389154662954	-0.04340513411650462	-0.1744992677671594	0.05298904860288317	0.08539819810077291	-1.3331332868102	-0.4107755784796581	-0.58643181374013	3.082240813860034	0.05819905201038096	0.4821115451065863	-0.2408387388237284	1.509894631850027	1.509894631850032	0.2190067437625547	0.0006097148154237569	-0.1280386311249676	0.01659822418359522	-0.1818267609912301	0.005410276209704379	0.002453192397356353	-0.157222638831344	0.1116421137245237	0.008499733870097909	0.1614853008275827	10.90777608565131	-3.716475087691605	-1.841434160994978	-10.72841410468712	-439.9314464652616	-63.45608346887044	-10.9265294309735	0.8611879614746746	0.860660638504674	-0.3171419731516025	-2.363647631383917	0.1137313565197546	-0.5206378502848744	1.694894382501543	-1.48121221716484	-1.481212217166829	-0.5152499859439558	0.002243331599260294	-0.1510769855826819	0.07593633551821924	-2.359014183748709e-07	-3.242456077330414e-08	2.103886680362904e-06	7.960690619395737e-08	-6.401827967641224e-07	8.383783876152619e-07	-3.586593324821094e-07
0.52	-0.4623519325868604	-0.08842678709564154	0.7432905595743903	1.342462379182722	-0.3507384032047191	-0.02992728853813885	-0.4190584829965872	0.8188617987678194	0.8188617987678188	-0.0412381151641245	-0.1744932868139133	0.05170158920089828	0.08556904017578922	-1.324131153571259	-0.402021286292341	-0.5891920784457144	3.0575017944228	0.05949636710955637	0.4763964069824046	-0.2238038481183253	1.494461812700767	1.494461812700761	0.2144107920856454	0.0005557077826767678	-0.1294294430595483	0.01756789608803908	-0.1887233713190454	0.005664603779182611	0.001854396902501841	-0.1585515687698448	0.1146423453330886	0.009177592226631011	0.1663038570828368	11.68507797429184	-3.956651200559127	-2.020531723104062	-11.3958014590399	-444.1932787647289	-63.75226549387412	-10.29776282511692	0.9263245109180114	0.8889646092141954	-0.236064632187073	-2.566141894633877	0.1650612899862517	-0.6468546476682127	1.72600579547902	-1.601501031556805	-1.601501031556929	-0.3524576572553522	-0.01231868815356233	-0.1222425046980428	0.1402124905151076	-2.292976046222823e-07	-3.783469506176294e-08	2.043937929737796e-06	7.44609571534784e-08	-5.9866502132921e-07	8.747396319134567e-07	-3.536979459284163e-07
0.53	-0.4755440002576812	-0.09240220060119543	0.737388311151109	1.372903570298144	-0.3501372208377271	-0.02519371506717283	-0.4212119432432411	0.8337239283916154	0.8337239283915825	-0.03911676270347429	-0.1744884588709514	0.05040066743570531	0.08574939541041103	-1.314104139635985	-0.3930372997371966	-0.5911189598581114	3.030340755009009	0.06072698583186228	0.4702809598324416	-0.2069334275458711	1.477751168989153	1.477751168989195	0.2098428348036199	0.0004131236448049229	-0.1307609302560228	0.01848767621493357	-0.195978917819906	0.005911700786219163	0.001308631150504554	-0.1589460970699806	0.1159283545113387	0.009932368712828123	0.1712053274872358	11.90967930336799	-4.183243577187588	-2.14492972680898	-11.43709225177918	-448.3452872899397	-63.96639451989856	-9.673535192127916	1.067581004184368	0.906747291547593	-0.150318314799093	-2.850492920632171	0.09990020220640011	-0.5997925626687155	1.660776238591134	-1.737717282302191	-1.737717282295563	-0.511482652608625	-0.01433245571144928	-0.1395008588209329	0.06530804152579617	-2.222613452686612e-07	-3.420134701704179e-10	2.029376058922781e-06	7.807068152369365e-08	-5.5816780890336e-07	9.031732504544321e-07	-3.454966894749087e-07
